<svg width="42" height="42" viewBox="0 0 42 42" fill="none" xmlns="http://www.w3.org/2000/svg">
<path d="M19.1517 21.9192C19.1322 23.2528 18.1934 24.3338 16.9762 24.3338C15.759 24.3338 14.7943 23.2528 14.7943 21.9192C14.7943 20.5857 15.7461 19.4917 16.9698 19.4917C18.1934 19.4917 19.1711 20.5857 19.1517 21.9192Z" fill="white"/>
<path d="M27.193 21.9192C27.1735 23.2528 26.2348 24.3338 25.0175 24.3338C23.8003 24.3338 22.8356 23.2528 22.8356 21.9192C22.8356 20.5857 23.7939 19.4917 25.0175 19.4917C26.2412 19.4917 27.2124 20.5857 27.193 21.9192Z" fill="white"/>
<path d="M20.9969 0C9.39461 0 -0.00634766 9.40598 -0.00634766 21C-0.00634766 32.594 9.39461 42 20.9969 42C32.5992 42 41.9937 32.6005 41.9937 21C41.9937 9.39951 32.5927 0 20.9969 0ZM33.0006 27.098C31.1489 28.4704 29.0706 29.5126 26.8692 30.1729C26.3707 29.5062 25.9304 28.8006 25.5549 28.0626C26.2736 27.7907 26.9664 27.4605 27.6268 27.0721C27.452 26.9556 27.2836 26.8261 27.1218 26.6902C23.2435 28.5157 18.7502 28.5157 14.872 26.6902C14.7102 26.8197 14.5354 26.9491 14.367 27.0721C15.0209 27.4605 15.7137 27.7907 16.4324 28.0561C16.0504 28.8006 15.6166 29.5062 15.1181 30.1729C12.9167 29.5062 10.8449 28.4639 8.99319 27.098C8.56587 22.6054 9.42051 18.0416 12.5801 13.3678C14.1728 12.6363 15.8561 12.1184 17.5784 11.8271C17.8179 12.2478 18.0316 12.6816 18.2193 13.1282C20.0581 12.8499 21.9292 12.8499 23.7615 13.1282C23.9557 12.6816 24.1694 12.2478 24.4025 11.8271C26.1312 12.1184 27.808 12.6363 29.4008 13.3613C31.764 16.8181 33.1042 20.6634 33.1042 25.0006C33.1042 25.6868 33.0718 26.3859 33.0006 27.098Z" fill="white"/>
</svg>
