<svg width="42" height="42" viewBox="0 0 42 42" fill="none" xmlns="http://www.w3.org/2000/svg">
<path d="M21 0C9.39951 0 0 9.40598 0 21C0 32.594 9.39951 42 21 42C32.6005 42 42 32.594 42 21C42 9.40598 32.594 0 21 0ZM30.8332 25.0783C30.7814 26.1335 30.6196 26.852 30.3736 27.48C30.1211 28.1273 29.7781 28.684 29.2343 29.2343C28.684 29.7845 28.1273 30.1211 27.48 30.3736C26.852 30.6196 26.1335 30.7814 25.0783 30.8332C24.0231 30.8785 23.6865 30.8915 21 30.8915C18.3135 30.8915 17.9769 30.8785 16.9217 30.8332C15.8665 30.7814 15.148 30.6196 14.52 30.3736C13.8662 30.1211 13.316 29.7845 12.7657 29.2343C12.2155 28.684 11.8789 28.1273 11.6264 27.48C11.3804 26.852 11.2121 26.1335 11.1668 25.0783C11.1215 24.0231 11.1085 23.6865 11.1085 21C11.1085 18.3135 11.1215 17.9769 11.1668 16.9217C11.2121 15.8665 11.3804 15.148 11.6264 14.52C11.8789 13.8727 12.2155 13.316 12.7657 12.7657C13.316 12.2155 13.8662 11.8789 14.52 11.6264C15.148 11.3804 15.8665 11.2121 16.9217 11.1668C17.9769 11.1215 18.3135 11.1085 21 11.1085C23.6865 11.1085 24.0231 11.1215 25.0783 11.1668C26.1335 11.2121 26.852 11.3804 27.48 11.6264C28.1273 11.8789 28.684 12.2155 29.2343 12.7657C29.7781 13.316 30.1211 13.8727 30.3736 14.52C30.6196 15.148 30.7814 15.8665 30.8332 16.9217C30.8785 17.9769 30.8915 18.3135 30.8915 21C30.8915 23.6865 30.8785 24.0231 30.8332 25.0783ZM28.7099 15.1674C28.5287 14.7013 28.315 14.3776 27.972 14.0281C27.6224 13.685 27.2922 13.4649 26.8326 13.2901C26.483 13.1541 25.9587 12.9923 24.9941 12.947C23.9519 12.9017 23.6412 12.8887 21 12.8887C18.3588 12.8887 18.0481 12.9017 16.9994 12.947C16.0348 12.9923 15.517 13.1541 15.1674 13.2901C14.7013 13.4649 14.3711 13.685 14.0281 14.0281C13.685 14.3776 13.4649 14.7013 13.2901 15.1674C13.1541 15.517 12.9923 16.0348 12.947 16.9994C12.9017 18.0481 12.8887 18.3588 12.8887 21C12.8887 23.6412 12.9017 23.9519 12.947 24.9941C12.9923 25.9587 13.1541 26.483 13.2901 26.8326C13.4649 27.2987 13.685 27.6224 14.0281 27.972C14.3711 28.315 14.7013 28.5287 15.1674 28.7099C15.517 28.8459 16.0348 29.0077 16.9994 29.053C18.0481 29.0983 18.3588 29.1113 21 29.1113C23.6412 29.1113 23.9519 29.0983 24.9941 29.053C25.9587 29.0077 26.483 28.8459 26.8326 28.7099C27.2922 28.5287 27.6224 28.315 27.972 27.972C28.315 27.6224 28.5287 27.2987 28.7099 26.8326C28.8459 26.483 29.0077 25.9587 29.053 24.9941C29.0983 23.9519 29.1113 23.6412 29.1113 21C29.1113 18.3588 29.0983 18.0481 29.053 16.9994C29.0077 16.0348 28.8459 15.517 28.7099 15.1674ZM21 26.0817C18.197 26.0817 15.9183 23.803 15.9183 21C15.9183 18.197 18.197 15.9183 21 15.9183C23.803 15.9183 26.0817 18.197 26.0817 21C26.0817 23.803 23.803 26.0817 21 26.0817ZM26.2824 16.9088C25.6221 16.9088 25.0912 16.3715 25.0912 15.7176C25.0912 15.0638 25.6221 14.533 26.2824 14.533C26.9427 14.533 27.467 15.0638 27.467 15.7176C27.467 16.3715 26.9362 16.9088 26.2824 16.9088Z" fill="white"/>
<path d="M23.328 23.3299C24.6148 22.0431 24.6148 19.9569 23.328 18.6701C22.0413 17.3833 19.955 17.3833 18.6682 18.6701C17.3814 19.9569 17.3814 22.0431 18.6682 23.3299C19.955 24.6167 22.0413 24.6167 23.328 23.3299Z" fill="white"/>
</svg>
