<svg width="24" height="24" viewBox="0 0 24 24" fill="none" xmlns="http://www.w3.org/2000/svg">
<path d="M9.60889 11.4622C10.2489 12.72 11.28 13.7467 12.5378 14.3911L13.5156 13.4133C13.6356 13.2933 13.8133 13.2533 13.9689 13.3067C14.4667 13.4711 15.0044 13.56 15.5556 13.56C15.8 13.56 16 13.76 16 14.0044V15.5556C16 15.8 15.8 16 15.5556 16C11.3822 16 8 12.6178 8 8.44444C8 8.2 8.2 8 8.44444 8H10C10.2444 8 10.4444 8.2 10.4444 8.44444C10.4444 9 10.5333 9.53333 10.6978 10.0311C10.7467 10.1867 10.7111 10.36 10.5867 10.4844L9.60889 11.4622Z" fill="white"/>
</svg>
