<svg width="12" height="12" viewBox="0 0 12 12" fill="none" xmlns="http://www.w3.org/2000/svg">
<path d="M10.2 1.19999H9.60004V0H8.40005V1.19999H3.60008V0H2.40009V1.19999H1.80009C1.13409 1.19999 0.606098 1.73999 0.606098 2.39998L0.600098 10.7999C0.600098 11.4599 1.13409 11.9999 1.80009 11.9999H10.2C10.86 11.9999 11.4 11.4599 11.4 10.7999V2.39998C11.4 1.73999 10.86 1.19999 10.2 1.19999ZM10.2 10.7999H1.80009V4.79997H10.2V10.7999ZM4.20007 7.19995H3.00008V5.99996H4.20007V7.19995ZM6.60006 7.19995H5.40007V5.99996H6.60006V7.19995ZM9.00004 7.19995H7.80005V5.99996H9.00004V7.19995ZM4.20007 9.59994H3.00008V8.39994H4.20007V9.59994ZM6.60006 9.59994H5.40007V8.39994H6.60006V9.59994ZM9.00004 9.59994H7.80005V8.39994H9.00004V9.59994Z" fill="#983F41"/>
</svg>
