<svg width="12" height="10" viewBox="0 0 12 10" fill="none" xmlns="http://www.w3.org/2000/svg">
<path d="M0.964132 9.94541C0.734577 10.0342 0.516499 10.0147 0.3099 9.8868C0.1033 9.75936 0 9.57353 0 9.32932V6.84832C0 6.69291 0.0459111 6.55415 0.137733 6.43204C0.229555 6.30994 0.355811 6.23223 0.516499 6.19893L5.50933 5.00006L0.516499 3.80118C0.355811 3.76788 0.229555 3.69018 0.137733 3.56807C0.0459111 3.44596 0 3.3072 0 3.15179V0.670793C0 0.426578 0.1033 0.240531 0.3099 0.112651C0.516499 -0.0147845 0.734577 -0.0340999 0.964132 0.0547055L11.5696 4.38397C11.8565 4.50608 12 4.71144 12 5.00006C12 5.28867 11.8565 5.49404 11.5696 5.61614L0.964132 9.94541Z" fill="white"/>
</svg>
