<svg width="330" height="384" viewBox="0 0 330 384" fill="none" xmlns="http://www.w3.org/2000/svg">
<path d="M337.425 497.03L14.1662 232.756C2.76044 223.416 -2.13914 208.134 1.61635 193.856L115.257 -224.541C119.467 -240.041 131.796 -252.113 147.424 -256.068L553.086 -356.873C560.424 -358.673 568.126 -358.662 575.415 -356.682C582.705 -354.702 589.385 -350.929 594.804 -345.664L893.729 -53.4872C905.24 -42.2835 909.768 -25.6338 905.527 -10.0193C869.803 121.506 828.996 263.645 783.96 412.345C781.875 419.121 776.331 424.224 769.231 425.599C611.296 457.723 461.481 482.017 348.566 499.689L348.504 499.917L337.342 496.885L337.425 497.03ZM193.52 -175.871L94.482 190.564L346.649 485.584L356.397 482.113C487.694 436.39 597.124 398.68 711.619 363.936L720.002 361.44L721.951 352.913C753.47 219.756 776.978 124.197 810.566 0.535927L812.888 -8.01217L550.289 -264.622L193.406 -175.902L193.52 -175.871ZM261.347 189.504C252.348 187.06 245.137 179.839 242.831 170.768C240.442 161.552 243.218 151.782 249.993 145.3L491.746 -89.6073C498.376 -96.0061 507.991 -98.5349 516.989 -96.0909C525.987 -93.6469 533.002 -86.6015 535.484 -77.7278L625.066 247.173C627.6 256.306 625.083 266.024 618.36 272.765C611.668 279.392 601.877 282.117 592.765 279.642L261.429 189.648L261.347 189.504ZM337.448 146.168L549.075 203.647L491.801 -3.80304L337.448 146.168Z" fill="#812D36"/>
</svg>
