<svg width="188" height="114" viewBox="0 0 188 114" fill="none" xmlns="http://www.w3.org/2000/svg">
<path d="M110.834 83.7378L95.2307 75.0017C94.4538 74.571 93.5256 74.571 92.7537 75.0017L77.1501 83.7378C76.348 84.1888 75.8435 85.0452 75.8435 85.9725V104.575C75.8435 105.467 76.3682 106.272 77.1804 106.637L93.6315 114H94.3529L94.4992 113.934C98.974 111.927 104.902 109.227 111.046 106.125C111.536 105.877 111.843 105.391 111.858 104.848C112.05 98.1747 112.146 91.8253 112.141 85.9725C112.141 85.0452 111.636 84.1888 110.834 83.7378ZM93.9897 80.1603L107.051 87.4725C107.051 92.9401 107.152 97.217 107.343 103.08C103.03 105.791 99.0648 108.492 93.9897 111.978L80.9287 103.044L80.9085 87.4826L93.9897 80.1603Z" fill="white"/>
<path d="M86.8313 101.884C86.2461 101.884 85.6962 101.565 85.4036 101.053C85.111 100.536 85.1161 99.8975 85.4188 99.3908L92.7691 86.9251C93.0667 86.4285 93.6065 86.1144 94.1816 86.1144C94.7567 86.1144 95.3016 86.4235 95.5942 86.9201L102.944 99.3908C103.247 99.9026 103.252 100.536 102.96 101.048C102.667 101.565 102.117 101.884 101.532 101.884H86.8263H86.8313ZM97.9703 98.1848L94.1867 91.7695L90.403 98.1848H97.9703ZM133.91 99.933C130.111 99.933 126.246 99.0158 122.735 97.2828L122.412 97.1206V97.1105L122.18 97.0091L122.498 96.1122L122.725 95.9906C126.019 94.2474 129.722 93.4012 134.051 93.4012C136.149 93.4012 138.369 93.5938 140.831 93.9941C146.517 94.44 152.515 95.0987 158.634 95.9501L159.26 96.0362L159.159 97.1308L158.68 97.3081H158.649C154.26 97.9871 149.816 98.4179 145.518 98.8334L145.255 98.8587C142.319 99.1425 139.318 99.4364 136.341 99.8063C135.529 99.8874 134.712 99.933 133.904 99.933H133.91ZM53.9139 99.8671C51.8052 99.8671 49.5804 99.6746 47.1085 99.2742C41.1304 98.808 35.1169 98.1341 29.2549 97.2676L28.9522 97.222V96.0007L29.2549 95.9551C33.6035 95.2913 38.0429 94.8606 42.3361 94.4451L42.4218 94.4349C45.4235 94.1461 48.5311 93.8471 51.6084 93.4671C52.4055 93.386 53.2228 93.3455 54.035 93.3455C57.8539 93.3455 61.7334 94.2626 65.2547 95.9906L65.5725 96.1477V96.1629L65.8096 96.2642L65.4918 97.1612L65.2647 97.2828C61.9604 99.0259 58.2474 99.8722 53.9139 99.8722V99.8671ZM23.5139 77.2465C23.5593 77.0489 23.5845 76.8817 23.5946 76.7297C23.6097 76.5219 23.6198 76.3395 23.6198 76.1722C23.6198 75.4121 23.3625 75.2145 23.2768 75.1486C22.9589 74.9105 22.4494 74.7737 21.7734 74.7382C21.7179 74.7382 21.6473 74.7382 21.5666 74.7382C20.9158 74.7382 19.589 74.8142 18.5649 74.8902C17.3844 74.9763 16.3401 75.0726 15.8306 75.1486C14.5896 75.3209 13.2073 75.5135 11.6586 75.7213C8.76788 76.1165 7.30993 76.3243 4.2326 76.7803L2.89572 76.9526V74.3176L3.69785 74.201C4.67654 74.049 5.07004 73.9223 5.22643 73.8413C5.4938 73.7044 5.6855 73.5575 5.82171 73.3953C5.95288 73.2383 6.03864 73.0761 6.079 72.8987C6.14458 72.6403 6.1799 72.3869 6.1799 72.1336V43.3156C6.1799 43.1585 6.15467 42.9761 6.09413 42.7481C6.04873 42.591 5.97306 42.4491 5.85198 42.3174C5.72586 42.1755 5.53416 42.0538 5.26174 41.9373C5.0549 41.8562 4.75726 41.8157 4.38899 41.8157C4.31331 41.8157 4.23764 41.8157 4.15693 41.8208L2.89572 41.8816V39.2516L3.52632 39.2212C7.09805 39.0591 10.6748 38.907 14.2516 38.7651L14.9377 38.7398L14.9276 70.4766C17.7628 70.1269 20.3003 69.8583 22.6209 69.6151C23.5694 69.5138 27.4135 69.1185 27.4135 69.1185L29.3457 70.6184L28.0391 72.164C27.6708 72.6048 27.3631 73.1065 27.1209 73.6487C26.8283 74.2973 26.6164 74.8547 26.4701 75.3564C26.2784 76.005 26.122 76.6587 26.0111 77.3124L25.9152 77.8445L23.1002 78.9137L23.5038 77.2465H23.5139ZM157.882 75.9949C158.004 74.9662 158.215 73.973 158.402 73.1014C158.619 72.0829 158.806 71.1708 158.917 70.2435C158.982 69.6962 159.018 69.2148 159.018 68.7638C159.018 68.1304 158.967 67.5375 158.866 67.0054C158.755 66.4075 158.634 65.8146 158.483 65.1305L158.22 63.9853L160.839 64.0917L161.061 64.6643C161.404 65.5562 161.923 66.4125 162.614 67.203C163.336 68.0341 164.148 68.7891 165.031 69.4377C165.924 70.0965 166.862 70.6488 167.821 71.0745C168.769 71.4951 169.682 71.7637 170.525 71.8701C170.807 71.8903 171.09 71.9055 171.347 71.9055C172.068 71.9055 172.679 71.8143 173.204 71.6268C174.006 71.3481 174.712 70.9123 175.302 70.3448C175.898 69.7519 176.346 69.083 176.674 68.2976C177.002 67.5071 177.169 66.6609 177.169 65.7893C177.169 64.867 176.997 64.1018 176.654 63.5191C176.296 62.8958 175.812 62.3789 175.221 61.9837C174.586 61.5479 173.834 61.1881 172.972 60.9145C172.079 60.6358 171.15 60.3875 170.202 60.1797C169.556 60.0378 168.865 59.8807 168.128 59.7085L167.821 59.6375C166.968 59.4399 166.07 59.1713 165.147 58.8369C164.224 58.4923 163.336 58.0666 162.509 57.5802C161.631 57.0633 160.849 56.4299 160.178 55.6951C159.492 54.9553 158.937 54.0533 158.518 53.0094C158.104 51.9757 157.893 50.7545 157.893 49.3812C157.893 47.7647 158.185 46.3358 158.76 45.1399C159.33 43.9642 160.092 42.9457 161.035 42.1096C161.954 41.3039 163.018 40.635 164.209 40.1181C165.364 39.6215 166.565 39.2364 167.775 38.9729C169.037 38.6993 170.252 38.5219 171.398 38.451C172.139 38.4054 172.871 38.38 173.572 38.38C174.798 38.38 175.978 38.451 177.078 38.5929C177.815 38.6841 178.496 38.7854 179.131 38.8868L180.852 39.1553C181.341 39.2313 181.8 39.2769 182.209 39.2972L183.258 39.3428L183.046 40.4374C182.895 41.1975 182.799 41.8309 182.743 42.3731C182.683 42.9356 182.652 43.4727 182.652 43.9794C182.652 44.6129 182.698 45.2311 182.789 45.8189C182.89 46.4726 183.016 47.1313 183.167 47.7749L183.424 48.9201L180.801 48.8846L180.589 48.2664C180.367 47.6533 180.165 47.0401 179.969 46.4371C179.802 45.9152 179.585 45.3983 179.338 44.8966C179.096 44.4355 178.808 44.0149 178.491 43.6551C178.173 43.2903 177.749 42.9558 177.224 42.6569C176.679 42.3579 176.003 42.1096 175.211 41.9272C174.384 41.7245 173.355 41.5978 172.149 41.5522C172.079 41.5522 172.003 41.5522 171.932 41.5522C171.276 41.5522 170.626 41.6738 170.005 41.912C169.304 42.1856 168.678 42.5758 168.134 43.0724C167.594 43.574 167.155 44.1771 166.832 44.8713C166.499 45.5756 166.343 46.3206 166.343 47.1567C166.343 47.8661 166.459 48.4742 166.681 48.9708C166.913 49.4775 167.22 49.9285 167.594 50.3085C167.982 50.6886 168.426 51.018 168.905 51.2713C169.44 51.5551 169.97 51.7882 170.479 51.9605C171.009 52.1379 171.514 52.2747 171.988 52.3659C172.497 52.4672 172.921 52.5432 173.254 52.6041C173.849 52.7003 174.566 52.8523 175.499 53.0702C176.362 53.278 177.244 53.5567 178.122 53.8962C179.01 54.2459 179.893 54.6969 180.756 55.2391C181.639 55.7914 182.446 56.4958 183.147 57.3268C183.858 58.1781 184.428 59.1764 184.847 60.2963C185.266 61.4314 185.478 62.759 185.478 64.2285C185.478 66.144 185.195 67.7858 184.635 69.1033C183.001 72.995 179.479 75.0828 174.162 75.3057C173.804 75.3209 173.446 75.326 173.082 75.326C170.121 75.326 166.908 74.8395 164.027 73.9528L163.427 73.897L163.412 73.7653C163.129 73.6842 162.796 73.6132 162.493 73.6132C162.1 73.6132 161.822 73.7348 161.626 74.0034C161.419 74.2821 161.358 74.7027 161.328 75.0372L161.313 75.2804C161.293 75.5236 161.278 75.7263 161.237 75.9847L161.146 76.532L160.652 76.6891H160.617C159.88 76.7347 159.583 76.7499 158.876 76.9627L157.766 77.3073L157.903 76.0101L157.882 75.9949ZM43.5166 73.3903C42.7497 73.3903 41.9829 73.3345 41.2313 73.2281C40.0306 73.066 38.8602 72.7518 37.7554 72.2957C36.6405 71.8346 35.5962 71.2265 34.6427 70.4867C33.6792 69.7367 32.8316 68.8195 32.1153 67.7605C31.3989 66.7065 30.8339 65.4802 30.4303 64.1171C30.0267 62.7742 29.8249 61.2489 29.8249 59.5868C29.8249 57.8285 30.0116 56.1715 30.3698 54.6614C30.738 53.1361 31.2274 51.7375 31.8277 50.496C32.4281 49.2444 33.1242 48.0941 33.9011 47.0857C34.6881 46.052 35.46 45.1855 36.2621 44.4203C38.1287 42.6265 40.2778 41.162 42.6488 40.0675L43.1886 39.8192L44.9493 41.4559L44.0463 42.1805L43.6023 42.6366C43.3148 42.9356 42.9465 43.3916 42.5429 43.9592C42.1191 44.5419 41.6651 45.2919 41.1455 46.2496C40.6511 47.1617 40.192 48.2664 39.7683 49.5282C39.3445 50.8001 38.9914 52.2848 38.7089 53.9469C38.4263 55.5887 38.2851 57.4636 38.2851 59.521C38.2851 61.4314 38.4717 63.0985 38.8451 64.4667C39.2083 65.8146 39.7128 66.9193 40.3434 67.7554C40.9588 68.5712 41.6601 69.1438 42.4925 69.4986C43.1634 69.7874 43.9151 69.9343 44.7273 69.9343C44.8988 69.9343 45.0704 69.9293 45.2419 69.9141C46.1449 69.8381 46.9975 69.5847 47.7794 69.1641C48.5866 68.7384 49.303 68.1608 49.9134 67.4463C50.5238 66.7318 51.0182 65.8855 51.3764 64.9329C51.7396 63.9802 51.9263 62.9262 51.9263 61.8013L51.9364 46.9844C51.9364 46.8019 51.9061 46.5841 51.8405 46.3256C51.7951 46.1483 51.7043 45.976 51.558 45.8088C51.4167 45.6415 51.1897 45.4946 50.8921 45.3679C50.5894 45.2463 50.2161 45.1855 49.7116 45.1855L48.5765 45.2159V42.5656L49.2222 42.5454C53.4548 42.4187 57.8993 42.3022 62.4346 42.2008L63.1106 42.1856V44.8105L62.2076 44.8308C61.6325 44.846 61.1684 44.9169 60.8304 45.0486C60.5277 45.1601 60.2906 45.302 60.1594 45.4439C60.0181 45.5959 59.9172 45.7631 59.8668 45.9506C59.8012 46.1939 59.7659 46.4624 59.7659 46.7614L59.7558 67.0004C59.7558 67.1828 59.7861 67.3905 59.8466 67.6236C59.892 67.8061 59.9828 67.9682 60.1241 68.1304C60.2552 68.2824 60.4772 68.4192 60.7749 68.5307C61.0775 68.6472 61.5215 68.6726 62.0865 68.6726H62.1824L63.0955 68.6168V71.2569L62.2126 71.3025C58.5652 71.4951 56.7642 71.6066 52.8696 71.8701L51.9162 71.9359V70.1979C51.3158 70.7502 50.66 71.2417 49.9638 71.6572C49.2424 72.093 48.4554 72.463 47.623 72.7518C46.7452 73.0508 45.8069 73.2433 44.8282 73.3193C44.4044 73.3599 43.9605 73.3751 43.5115 73.3751L43.5166 73.3903ZM149.624 73.0051L149.281 72.5187C143.131 63.8586 139.479 58.7761 133.123 50.3795L133.36 66.9243C133.36 67.0966 133.39 67.3044 133.45 67.5527C133.496 67.7402 133.587 67.9125 133.728 68.0898C133.864 68.2621 134.081 68.4293 134.394 68.5915C134.707 68.7486 135.156 68.8499 135.716 68.8854L136.548 68.9361V71.6927L135.862 71.6623C132.911 71.5458 129.939 71.4393 127.028 71.3481L126.388 71.3279V68.3584L127.417 68.404C127.493 68.404 127.573 68.404 127.649 68.404C128.032 68.404 128.35 68.3635 128.602 68.2925C128.88 68.2114 129.097 68.105 129.218 67.9783C129.354 67.8466 129.435 67.7149 129.48 67.5426C129.541 67.3145 129.571 67.0612 129.571 66.7875L129.526 46.1939C129.354 46.0013 129.183 45.8189 129.021 45.6719C128.834 45.4996 128.643 45.3527 128.451 45.2463C128.285 45.15 128.108 45.0791 127.916 45.0385C127.704 44.9929 127.457 44.9676 127.19 44.9625L126.332 44.9422V42.4187L127.008 42.4339C130.141 42.5048 133.269 42.5809 136.397 42.667L136.714 42.6771L136.972 43.0217C140.125 47.2124 142.173 50.0856 144.524 53.3996L144.695 53.6429C145.876 55.31 147.117 57.0532 148.59 59.1206V44.6686C148.585 44.4963 148.55 44.3037 148.489 44.096C148.439 43.9136 148.343 43.7514 148.201 43.5943C148.05 43.417 147.828 43.2649 147.525 43.1231C147.218 42.9812 146.789 42.9001 146.254 42.8798L145.402 42.8596V40.3462L146.078 40.3664C149.074 40.4526 152.071 40.5387 155.067 40.6401L155.708 40.6603V43.2345L154.871 43.2092C154.669 43.1839 154.533 43.1737 154.402 43.1737C154.099 43.1737 153.811 43.2244 153.519 43.3257C153.236 43.417 153.024 43.5386 152.893 43.6805C152.762 43.8173 152.676 43.9744 152.631 44.1365C152.56 44.4051 152.525 44.6737 152.525 44.9625L152.56 73.1572L149.609 72.995L149.624 73.0051ZM113.428 70.9174C113.312 70.9174 113.236 70.9174 113.15 70.9123C111.062 70.8465 109.054 70.4664 107.187 69.7874C105.31 69.1033 103.631 68.1456 102.208 66.9395C100.76 65.7132 99.5947 64.2285 98.7472 62.531C97.8542 60.7473 97.4052 58.8065 97.4103 56.7593C97.4103 54.7121 97.7785 52.7561 98.4949 50.947C99.176 49.2343 100.104 47.7191 101.244 46.4472C101.946 45.6669 102.728 44.9625 103.57 44.3392L102.904 44.2227V11.5941C102.904 11.4877 102.874 11.3508 102.823 11.1988C102.788 11.0823 102.722 10.986 102.606 10.8593C102.501 10.7529 102.314 10.6465 102.062 10.5502C101.779 10.4438 101.497 10.388 101.224 10.388C101.169 10.388 101.108 10.388 101.063 10.3982L100.034 10.4134V6.35951H100.957C104.165 6.34938 105.775 6.33924 108.983 6.3139H109.19C109.906 6.3139 110.623 6.32911 111.319 6.35951C112.131 6.38991 113.034 6.46086 114.073 6.58754C114.991 6.69902 115.98 6.87638 117.014 7.10948C118.023 7.34257 119.012 7.65675 119.961 8.0368C120.904 8.41685 121.822 8.90838 122.685 9.48606C123.542 10.0637 124.314 10.7782 124.98 11.6093C125.636 12.4353 126.161 13.4031 126.544 14.4926C126.917 15.577 127.109 16.8185 127.114 18.1816C127.114 20.0717 126.776 21.8808 126.105 23.5733C125.429 25.2658 124.44 26.7809 123.164 28.0629C121.883 29.345 120.304 30.3686 118.467 31.1084C116.697 31.8229 114.598 32.1827 112.242 32.1928C111.627 32.1877 111.041 32.1523 110.491 32.0864C110.3 32.0661 110.108 32.0357 109.921 32.0053V36.4595L109.911 36.4848C109.836 36.9004 109.578 37.0625 109.155 37.3311L108.973 37.4527C108.004 38.0811 107.056 39.0388 106.652 39.4492C105.452 40.6603 104.872 42.2616 104.362 43.6703L104.296 43.8477C104.604 43.6501 104.917 43.4626 105.24 43.2852C106.718 42.4795 108.332 41.8664 110.042 41.4711C110.966 41.2532 112.01 41.1215 113.145 41.0708C113.993 41.0353 114.86 41.015 115.794 41.015H116.53C117.68 41.0353 118.72 41.0657 119.623 41.1063C120.576 41.1468 121.373 41.1721 122.019 41.1873L123.098 41.2025L122.861 42.3021C122.735 42.8393 122.649 43.3359 122.599 43.7869C122.544 44.248 122.518 44.6382 122.518 44.9878C122.518 45.4844 122.559 45.9658 122.634 46.4219C122.715 46.878 122.821 47.3746 122.962 47.932L123.245 49.0468L120.753 49.0924L120.51 48.5451C120.198 47.8154 119.804 47.1921 119.305 46.6246C118.785 46.0469 118.215 45.5554 117.615 45.1753C116.994 44.7801 116.328 44.471 115.627 44.2581C114.916 44.0453 114.215 43.9338 113.534 43.9338C112.807 43.9338 112.141 44.0555 111.546 44.2987C110.91 44.5571 110.295 44.927 109.72 45.4034C109.16 45.8645 108.625 46.4422 108.141 47.1263C107.651 47.8256 107.222 48.5654 106.869 49.3305C106.496 50.1363 106.188 50.9825 105.956 51.8389C105.81 52.3811 105.684 52.9284 105.588 53.4756C111.031 53.5466 114.169 53.6074 119.986 53.7695L121.368 53.7999L120.753 55.087C120.576 55.4519 120.43 56.1056 120.324 56.587L120.243 56.9468C120.117 57.5092 120.031 58.016 119.976 58.4822C119.905 59.0953 119.865 59.6172 119.855 60.1138L119.84 60.8638L117.695 61.2033L117.529 60.3469C117.388 59.6071 117.211 58.9838 117.009 58.5075C116.848 58.1325 116.616 57.8437 116.298 57.6207C115.95 57.3775 115.445 57.2001 114.805 57.0785C114.093 56.9468 113.135 56.8707 111.944 56.8454C109.261 56.7947 107.782 56.7694 105.346 56.739C105.356 57.6359 105.462 58.543 105.664 59.4247C105.835 60.1443 106.072 60.6256 106.345 61.1881L106.572 61.6442C106.955 62.4651 107.439 63.2353 108.014 63.9296C108.574 64.6187 109.215 65.2319 109.916 65.7538C110.608 66.2656 111.369 66.676 112.187 66.975C113.004 67.2689 113.887 67.4361 114.805 67.4666H115.012C115.884 67.4666 116.485 67.4159 116.999 67.2943L117.241 67.2385C118.069 67.0612 118.997 66.8585 119.693 66.2555C120.374 65.6575 120.838 64.8011 120.965 63.9093L121.005 63.6103L121.262 63.4431C121.378 63.3671 121.565 63.2455 121.873 63.0225L123.058 62.1712L122.952 63.6002C122.927 63.7927 122.907 63.9448 122.887 64.0866C122.866 64.2387 122.846 64.3805 122.831 64.5376L122.508 67.5071L122.417 67.6591C122.029 68.2114 121.55 68.6624 120.934 69.0729C120.349 69.458 119.673 69.7925 118.871 70.0914C118.074 70.3853 117.196 70.6032 116.253 70.7502C115.511 70.8718 114.669 70.9377 113.75 70.9377H113.443L113.428 70.9174ZM109.921 28.7217C110.29 28.8737 110.693 28.9902 111.122 29.0561C111.823 29.1625 112.383 29.2132 112.878 29.2183H113.039C113.937 29.2183 114.729 29.0815 115.395 28.8129C116.086 28.5291 116.661 28.1592 117.156 27.693C117.66 27.2116 118.089 26.6491 118.427 26.0208C118.79 25.3418 119.078 24.6526 119.295 23.9077C119.512 23.1425 119.673 22.3774 119.764 21.6477C119.86 20.8977 119.91 20.1579 119.91 19.4535C119.91 18.0904 119.734 16.8894 119.391 15.8861C119.047 14.903 118.583 14.0315 118.013 13.3068C117.443 12.5873 116.787 11.9893 116.066 11.5282C115.304 11.0417 114.507 10.6414 113.7 10.3374C112.898 10.0384 112.071 9.81544 111.238 9.66848C110.719 9.58234 110.27 9.51646 109.916 9.48099V28.7318L109.921 28.7217ZM78.1492 70.8617C76.4037 70.8617 74.7793 70.5931 73.3364 70.061C71.7625 69.4935 70.36 68.6422 69.1694 67.5375C67.9789 66.4379 67.0254 65.09 66.3342 63.5292C65.6381 61.9584 65.29 60.2051 65.295 58.3149C65.295 56.5312 65.6532 54.8083 66.3544 53.1969C67.0506 51.6058 68.0545 50.1261 69.346 48.7934C70.6173 47.486 72.1812 46.3155 73.9923 45.3121C75.3291 44.5774 76.777 43.944 78.3056 43.4271C76.9939 42.4643 76.1313 41.0049 75.879 39.3074C75.8689 39.2009 75.8639 39.1249 75.8588 39.0438C75.7428 36.8092 76.8577 34.5694 78.7747 33.2012C78.9059 33.11 79.1178 32.9428 79.37 32.7401C79.7484 32.4411 80.1318 32.1421 80.4849 31.8786C78.8555 31.8888 77.2209 31.8989 75.5915 31.9141H74.9256V31.2503C74.9256 30.0645 74.9407 28.8737 74.9558 27.6727V27.1913C75.0012 23.9634 75.0416 20.6342 74.9003 17.4164C74.7894 14.9385 74.4564 11.8525 72.8421 9.94212C72.5041 9.5418 72.1156 9.22762 71.6868 9.0148C71.2782 8.8121 70.8241 8.70569 70.3449 8.70569C69.3107 8.70569 68.1705 9.18202 67.2877 9.98266C66.309 10.8694 65.5876 12.1363 65.1386 13.7477C63.5142 19.6765 65.4766 26.0816 69.9161 29.3146C70.587 29.8061 71.3185 30.2165 72.0853 30.5358L72.6655 30.774L72.4486 31.9394L69.341 31.9698L68.7759 31.8026C68.2765 31.5949 67.7165 31.3415 66.9901 31.002C66.2535 30.6574 65.4665 30.2216 64.6493 29.7098C63.8017 29.1777 62.9492 28.5494 62.1168 27.84C61.2491 27.1001 60.452 26.2387 59.7558 25.286C59.0445 24.308 58.4643 23.2033 58.0204 22.0024C57.5714 20.7761 57.3444 19.3876 57.3444 17.8826C57.3444 17.0769 57.4201 16.2256 57.5714 15.354C57.7328 14.4267 57.9952 13.5146 58.3634 12.6481C58.7418 11.7512 59.2412 10.8897 59.8466 10.084C60.4621 9.2631 61.2541 8.5182 62.1925 7.87465C63.1056 7.24629 64.2104 6.73449 65.4665 6.35951C66.7025 5.98959 68.1352 5.79704 69.7193 5.7869C70.6072 5.80717 71.9088 5.85278 72.9883 6.0656C73.9469 6.25816 74.8398 6.53687 75.6419 6.89665C76.4541 7.2615 77.1655 7.69222 77.7708 8.16855C78.0735 8.41178 78.3661 8.66515 78.6335 8.93372C78.9665 8.61954 79.2439 8.38138 79.5113 8.16348C80.1217 7.68209 80.833 7.25136 81.6352 6.88651C82.4373 6.52673 83.3302 6.24296 84.2887 6.04534C85.3835 5.83251 86.6648 5.78183 87.5325 5.76156C89.1418 5.76663 90.5796 5.95919 91.8156 6.32404C93.0667 6.68889 94.1665 7.19562 95.0846 7.8189C96.0129 8.44725 96.7999 9.18202 97.4305 10.0029C98.051 10.8289 98.5504 11.6853 98.9136 12.5467C99.2819 13.4183 99.5493 14.3203 99.7057 15.2274C99.857 16.0989 99.9327 16.9401 99.9327 17.7306C99.9327 19.2204 99.7006 20.5987 99.2516 21.82C98.8077 23.026 98.2225 24.1256 97.5162 25.0935C96.815 26.0512 96.023 26.9126 95.1553 27.6525C94.3178 28.367 93.4703 29.0004 92.6278 29.5375C91.7954 30.0595 91.0084 30.5054 90.282 30.855C89.6161 31.1743 89.046 31.4378 88.597 31.6354L87.9361 31.8432L84.8336 31.8584L84.5965 30.6929L85.1817 30.4446C85.9535 30.1152 86.68 29.6946 87.3459 29.2031C91.7853 25.9245 93.7528 19.5346 92.1334 13.6666C91.6996 12.0957 90.958 10.8036 89.9894 9.93199C89.1116 9.14148 87.9714 8.67022 86.9423 8.67022C86.458 8.67022 86.004 8.77663 85.5903 8.97933C85.1564 9.19722 84.768 9.50633 84.43 9.90665C82.8157 11.8272 82.4827 14.9132 82.3717 17.386C82.2305 20.5886 82.2658 23.9178 82.3061 27.1407L82.3162 28.0579C82.3263 29.122 82.3414 30.1659 82.3414 31.1996V31.8584C82.3414 31.8584 81.2013 31.8634 80.9642 31.8634L81.6301 32.5171L81.4535 32.7654C80.828 33.6522 80.4244 34.392 80.379 34.7366C80.2327 35.8514 80.5707 36.8801 81.2972 37.5541C82.2204 38.4104 83.2192 39.1807 84.097 39.8648L84.4653 40.1536C85.9384 41.2988 87.2097 42.3427 88.3498 43.346C89.8733 44.6838 91.1446 46.0114 92.1233 47.2935C93.1525 48.6161 93.9496 49.9893 94.4893 51.3828C95.0493 52.8219 95.3419 54.3573 95.3621 55.9485C95.3823 57.5244 95.1502 59.0497 94.676 60.4736C94.222 61.8266 93.5914 63.0681 92.7943 64.1677C91.9922 65.2623 91.0336 66.2301 89.9541 67.046C88.8795 67.8517 87.699 68.5408 86.4429 69.0932C85.2018 69.6404 83.8801 70.061 82.513 70.3549C81.1559 70.6387 79.7635 70.8059 78.3661 70.8414H78.2148L78.1643 70.8465L78.1492 70.8617ZM81.2719 45.6821C80.5657 45.8797 79.8896 46.1483 79.254 46.4827C78.4922 46.8932 77.7809 47.3898 77.1352 47.9573C76.4995 48.5198 75.8942 49.1735 75.3392 49.9133C74.8095 50.643 74.3555 51.4234 73.9923 52.224C73.6189 53.0449 73.3264 53.9064 73.1195 54.7729C72.9177 55.6445 72.8168 56.5312 72.8168 57.413C72.8168 58.2947 72.9076 59.1612 73.0892 59.9922C73.2709 60.8283 73.5332 61.6442 73.8712 62.4094C74.1941 63.139 74.6128 63.8333 75.1072 64.4768C75.5814 65.09 76.1262 65.6271 76.7266 66.068C77.3168 66.5088 77.9575 66.8382 78.6839 67.0865C79.3045 67.2993 80.0713 67.421 80.7876 67.421H80.9339C81.8571 67.4007 82.7349 67.1524 83.5421 66.6862C84.3795 66.2099 85.1211 65.541 85.7366 64.6947C86.3722 63.8333 86.8868 62.7793 87.2551 61.5631C87.6334 60.3317 87.8251 58.9534 87.8251 57.4636C87.8251 56.3336 87.7091 55.2543 87.4771 54.2712C87.25 53.278 86.8666 52.3 86.3521 51.3474C85.8324 50.3846 85.1262 49.4116 84.2585 48.459C83.4614 47.5773 82.4575 46.6449 81.277 45.6821H81.2719ZM181.639 35.4156C180.973 35.4156 180.322 35.3295 179.706 35.1673C178.359 34.8025 176.997 33.9816 175.539 32.659C172.013 29.4818 169.622 25.1999 167.558 21.0447L167.508 20.9382L167.447 20.1731L168.083 20.0261L168.517 20.0109C170.015 19.7221 171.418 19.19 172.628 18.435C173.138 18.1208 173.658 17.7256 174.172 17.2594C174.656 16.8185 175.09 16.2966 175.464 15.7037C175.842 15.1108 176.14 14.4368 176.377 13.6362C176.609 12.871 176.725 11.9741 176.725 10.9759C176.725 10.0891 176.624 9.2783 176.422 8.55873C176.225 7.84931 175.958 7.22603 175.635 6.69902C175.317 6.17202 174.944 5.72609 174.535 5.37138C174.096 4.99133 173.642 4.68222 173.188 4.45926C172.724 4.23123 172.265 4.06907 171.816 3.97786C171.468 3.90185 171.075 3.86131 170.696 3.86131H170.53C170.267 3.87651 169.597 3.91705 169.597 3.91705C169.309 3.93732 169.067 3.95252 168.865 3.95759C168.376 3.97786 167.942 4.35791 167.725 4.58594C167.574 4.74303 167.473 4.92039 167.402 5.15348C167.336 5.40178 167.301 5.69062 167.301 5.97946V28.8484C167.306 29.2588 167.311 29.7757 167.498 30.1861C167.896 31.078 169.46 31.3922 170.787 31.3922H171.443L171.463 32.0509L171.433 34.3312L170.757 34.311C166.141 34.1589 161.848 34.0272 157.63 33.9106L156.984 33.8954V31.1236L157.686 31.1641C157.837 31.1743 157.978 31.1793 158.12 31.1793C159.305 31.1793 160.027 30.8601 160.324 30.2064C160.496 29.8264 160.496 29.3754 160.496 28.9345C160.496 21.4146 160.496 13.8946 160.496 6.35951C160.496 5.91865 160.496 5.37138 160.279 4.95079C159.961 4.33764 159.214 4.02347 158.064 4.02347C157.938 4.02347 157.802 4.02347 157.666 4.0336L156.979 4.07414L156.969 3.38498C156.964 2.97453 156.949 2.56407 156.939 2.15869L156.919 1.52527L158.861 1.36311C161.025 1.18576 162.741 1.04894 165.066 0.891852C166.983 0.765168 169.037 0.648619 171.085 0.648619C171.963 0.648619 172.795 0.668889 173.562 0.709427C178.011 0.95266 181.003 2.07761 182.985 4.24643C185.452 6.94225 186.058 11.3559 184.459 14.9791C183.112 18.0347 179.419 20.9078 175.741 21.825C176.447 22.423 177.986 23.9989 178.349 24.7286C178.516 25.0681 178.637 25.3164 178.692 25.4076C179.61 26.9886 180.559 28.3619 181.583 29.6186C182.476 30.7131 183.485 31.9546 184.812 32.2789C185.079 32.3448 185.407 32.3803 185.745 32.3803C186.154 32.3803 186.542 32.3296 186.87 32.2283L187.511 32.0357L188 33.7079L187.45 33.936C185.7 34.6555 183.661 35.4258 181.649 35.4258L181.639 35.4156ZM7.28975 35.3346C6.69447 35.3346 6.20007 35.3244 5.78135 35.2991C4.95905 35.2585 4.29818 35.2079 3.76343 35.1319L2.48205 34.9444C2.24999 34.9038 1.98261 34.8886 1.61938 34.8836L0.423764 34.914L0.691139 33.6725C0.822304 33.0543 0.923201 32.4563 0.998873 31.8482C1.06446 31.2807 1.09472 30.7942 1.09472 30.3686C1.09472 29.7402 1.04932 29.1524 0.948425 28.6203C0.842484 28.0427 0.716363 27.4295 0.575109 26.7758L0.307734 25.5951L3.08238 25.433L3.33967 26.0816C3.67262 26.9329 4.17206 27.7133 4.83798 28.4126C5.52911 29.1372 6.31611 29.7757 7.17877 30.3027C8.02125 30.8246 8.92932 31.2351 9.88279 31.5188C10.7354 31.7773 11.5627 31.904 12.3447 31.904H12.5111C13.5857 31.828 14.413 31.6405 15.1143 31.306C15.9265 30.9209 16.6075 30.4395 17.1927 29.8213C17.7678 29.2132 18.2219 28.519 18.5397 27.764C18.8575 27.014 19.0189 26.2387 19.0189 25.4532C19.0189 24.6273 18.8626 23.9989 18.5447 23.5277C18.2067 23.0159 17.7527 22.6003 17.1927 22.3014C16.5672 21.9568 15.8306 21.6831 14.9982 21.4957C14.1255 21.3031 13.2073 21.1409 12.274 21.0143C11.5526 20.918 10.7656 20.8014 9.91306 20.6697C9.0403 20.5379 8.13728 20.3302 7.23931 20.0616C6.35646 19.8032 5.47867 19.4434 4.62105 18.9873C3.73821 18.511 2.95626 17.913 2.2853 17.2036C1.59416 16.4739 1.03923 15.5719 0.625557 14.523C0.211882 13.4791 0 12.2478 0 10.8542C0 9.19215 0.297644 7.72769 0.877797 6.51153C1.44282 5.31564 2.20458 4.2819 3.14796 3.45086C4.0863 2.62995 5.16589 1.97626 6.34637 1.505C7.47641 1.04387 8.67203 0.689158 9.89288 0.450993C11.0885 0.217896 12.2993 0.0760101 13.4898 0.0354714C14.0296 0.0101347 14.5492 0 15.0386 0C15.6389 0 16.1888 0.0202694 16.7185 0.0557407C17.6215 0.106414 18.4035 0.182424 19.1148 0.278704C19.8412 0.374983 20.5173 0.481397 21.1378 0.577677L22.8429 0.841178C23.3524 0.912121 23.7913 0.957727 24.1747 0.977997L25.3351 1.0388L25.0778 2.19416C24.9315 2.84784 24.8356 3.40525 24.7852 3.89678C24.7297 4.38832 24.6994 4.86971 24.6944 5.32577C24.6944 5.88825 24.7347 6.43045 24.8205 6.94225C24.9113 7.48446 25.0374 8.0672 25.1887 8.68035L25.4965 9.91172L22.6764 9.96239L22.4242 9.32897C22.1972 8.76143 21.9954 8.21416 21.8037 7.65675C21.6271 7.18042 21.4253 6.72436 21.1933 6.30377C20.9612 5.89332 20.6837 5.51833 20.371 5.18896C20.0582 4.85958 19.6495 4.56061 19.1451 4.30217C18.6154 4.02347 17.9494 3.79037 17.1725 3.61301C16.3502 3.42552 15.3362 3.29884 14.1557 3.23296C14.075 3.23296 13.9893 3.22789 13.9035 3.22789C13.2578 3.22789 12.6524 3.33431 12.0975 3.537C11.4265 3.77517 10.8211 4.12988 10.3015 4.60114C9.79198 5.04707 9.37326 5.61461 9.05039 6.29363C8.73762 6.95239 8.57618 7.68209 8.58123 8.47259C8.58123 9.15668 8.68717 9.73943 8.90409 10.1955C9.12102 10.6769 9.41362 11.0924 9.7718 11.4319C10.1401 11.7765 10.5689 12.0755 11.0431 12.3086C11.5224 12.5417 12.0369 12.7393 12.5666 12.8964C13.056 13.0383 13.5403 13.1396 14.0498 13.2156C14.5442 13.2866 14.9579 13.3423 15.2807 13.3778C16.0627 13.4741 16.7942 13.5855 17.5206 13.7122C18.3429 13.849 19.2106 14.0568 20.1086 14.3355C20.9713 14.6091 21.8491 14.9689 22.7168 15.4047C23.6097 15.8608 24.4219 16.4486 25.1232 17.1631C25.8345 17.8776 26.4096 18.7492 26.8384 19.7424C27.2672 20.7457 27.4841 21.9365 27.4841 23.2692C27.4841 24.982 27.1966 26.4971 26.6366 27.764C26.0716 29.0359 25.2997 30.1304 24.3311 31.0273C23.3878 31.909 22.2678 32.6286 21.0167 33.1708C19.811 33.6978 18.5145 34.1184 17.1524 34.4275C15.755 34.7417 14.3575 34.9596 13.0106 35.0812C11.4265 35.2231 10.13 35.2991 8.93941 35.3244C8.33908 35.3396 7.79424 35.3498 7.30993 35.3498L7.28975 35.3346ZM145.936 34.8025C145.795 34.8025 145.422 34.7924 145.422 34.7924H145.24C143.167 34.7113 141.174 34.3363 139.323 33.6674C137.466 32.9985 135.806 32.0661 134.384 30.8956C132.936 29.6946 131.781 28.2606 130.948 26.6339C130.065 24.9262 129.616 23.0615 129.621 21.0953C129.621 19.1343 129.985 17.2594 130.701 15.5314C131.367 13.9048 132.28 12.4555 133.425 11.2242C134.565 9.99786 135.897 8.97932 137.385 8.18375C138.858 7.40338 140.458 6.81557 142.143 6.42539C143.051 6.21256 144.085 6.08081 145.22 6.02507C146.179 5.97439 147.208 5.94906 148.373 5.94906H148.575C149.614 5.95412 150.613 5.97439 151.637 6.00986C152.585 6.04027 153.367 6.06054 154.013 6.0656H155.093L154.851 7.13988C154.719 7.70236 154.634 8.16855 154.593 8.56887C154.538 9.00973 154.513 9.38978 154.513 9.73943C154.513 10.2056 154.553 10.6718 154.624 11.1279C154.699 11.5383 154.805 12.0147 154.951 12.5721L155.234 13.6463L152.752 13.7122L152.515 13.17C152.207 12.4809 151.819 11.8778 151.319 11.3356C150.825 10.7934 150.26 10.3222 149.639 9.94719C149.029 9.5722 148.368 9.28337 147.672 9.08067C146.986 8.88305 146.3 8.7817 145.634 8.7817C144.902 8.7817 144.226 8.90331 143.626 9.14148C143 9.38978 142.39 9.74956 141.82 10.2107C141.265 10.6515 140.74 11.209 140.256 11.8677C139.772 12.5366 139.348 13.2511 138.995 13.9909C138.626 14.7612 138.324 15.5719 138.087 16.3979C137.945 16.8894 137.824 17.4164 137.723 17.9587C142.985 18.0347 145.972 18.0904 151.995 18.2272L153.377 18.2576L152.757 19.5042C152.606 19.8082 152.474 20.4467 152.368 20.9585L152.343 21.0801C152.313 21.2271 152.283 21.374 152.252 21.5007C152.131 22.048 152.041 22.5345 151.99 22.9804C151.919 23.5986 151.884 24.1003 151.874 24.5513L151.854 25.281L149.73 25.6103L149.564 24.7793C149.417 24.0597 149.246 23.4618 149.044 23.0007C148.883 22.6409 148.656 22.3622 148.343 22.1595C147.995 21.9213 147.495 21.749 146.86 21.6375C146.158 21.5109 145.205 21.4399 144.024 21.4146C141.366 21.3588 139.898 21.3335 137.486 21.293C137.496 22.1493 137.602 23.0108 137.799 23.8621C137.94 24.4347 138.117 24.754 138.349 25.1593C138.46 25.3519 138.581 25.5647 138.707 25.8282C139.096 26.6187 139.575 27.3586 140.13 28.0173C140.69 28.6862 141.325 29.2842 142.017 29.7858C142.703 30.2824 143.459 30.6777 144.267 30.9665C145.084 31.2554 145.962 31.4175 146.865 31.453H147.182C147.959 31.453 148.534 31.4074 149.034 31.2959L149.306 31.2401C150.159 31.0577 151.037 30.8702 151.708 30.2976C152.384 29.7199 152.843 28.899 152.969 28.0427L153.014 27.7335L153.277 27.5714C153.393 27.5005 153.574 27.3788 153.872 27.1711L155.057 26.34L154.941 27.764L154.866 28.3264C154.845 28.4784 154.835 28.5545 154.825 28.6355L154.507 31.5087L154.417 31.6607C154.043 32.1877 153.564 32.6286 152.944 33.0289C152.368 33.3988 151.703 33.7181 150.9 34.0069C150.144 34.2805 149.271 34.4883 148.312 34.6353C147.576 34.7467 146.784 34.8025 145.946 34.8025H145.936ZM45.3075 34.7366C43.3703 34.7366 41.4734 34.4478 39.6775 33.8701C37.8109 33.2722 36.1511 32.3955 34.7386 31.2705C33.2958 30.1203 32.1405 28.7065 31.3031 27.0697C30.4202 25.3671 29.9763 23.482 29.9813 21.4754C29.9813 19.4738 30.3445 17.5634 31.0609 15.7949C31.7319 14.1176 32.65 12.6329 33.7851 11.3762C34.9202 10.1245 36.252 9.0756 37.7503 8.25469C39.2234 7.45406 40.8226 6.84091 42.5126 6.44059C43.4056 6.22269 44.4398 6.08081 45.5849 6.01493C46.6141 5.95412 47.7138 5.91865 48.9448 5.91358H49.4593C50.3018 5.91358 51.1393 5.92879 52.007 5.94906C52.9554 5.97439 53.7373 5.98453 54.3831 5.98453H55.4728L55.2256 7.05374C55.0994 7.60608 55.0137 8.07227 54.9683 8.47259C54.9128 8.91852 54.8876 9.2935 54.8876 9.61781C54.8876 10.0789 54.9229 10.5401 54.9986 10.9809C55.0793 11.4167 55.1852 11.8829 55.3214 12.4048L55.6039 13.469L53.137 13.5754L52.8949 13.0433C52.5871 12.3643 52.1987 11.7765 51.6992 11.2444C51.1998 10.7124 50.6348 10.2563 50.0244 9.89145C49.419 9.53166 48.7581 9.24789 48.0569 9.05027C47.391 8.86784 46.7301 8.77663 46.0894 8.77663C45.3327 8.77663 44.6315 8.90331 44.016 9.15668C43.3753 9.41512 42.7699 9.78503 42.21 10.2512C41.655 10.7022 41.1304 11.2698 40.636 11.9437C40.1668 12.5974 39.743 13.3271 39.3748 14.0973C39.0115 14.8726 38.7038 15.6986 38.4667 16.5398C38.3254 17.0364 38.2044 17.5634 38.1035 18.1208C43.3249 18.0701 46.3063 18.0549 52.3601 18.0499H53.7575L53.1269 19.3116C52.9756 19.6207 52.8394 20.2795 52.7334 20.7609C52.6931 20.9636 52.6527 21.1409 52.6174 21.293C52.4913 21.8402 52.4055 22.3216 52.35 22.7726C52.2794 23.3655 52.239 23.8722 52.229 24.3334L52.2138 25.0479L50.095 25.4431L49.9235 24.607C49.7822 23.8976 49.6056 23.3148 49.4089 22.8588C49.2525 22.5091 49.0255 22.2456 48.7178 22.048C48.3697 21.82 47.8702 21.6629 47.2346 21.5666C46.5939 21.4703 45.7413 21.4196 44.7778 21.4196H44.4044C41.7357 21.4399 40.2727 21.45 37.8512 21.4754C37.8563 22.3571 37.9622 23.2287 38.164 24.0699C38.3053 24.6577 38.4869 24.9668 38.7089 25.357C38.8198 25.5495 38.9359 25.7573 39.062 26.0157C39.4504 26.8062 39.9297 27.5309 40.4846 28.1643C41.0446 28.818 41.6752 29.3906 42.3663 29.8669C43.0474 30.3331 43.7991 30.6979 44.6062 30.9564C45.3932 31.2047 46.266 31.3314 47.2043 31.3364C48.1477 31.3162 48.7985 31.2401 49.3786 31.0881L49.646 31.0223C50.4986 30.8044 51.3814 30.5814 52.0574 29.9885C52.7334 29.3906 53.1976 28.5545 53.3237 27.7031L53.3691 27.4092L53.6163 27.2471C53.7323 27.1711 53.919 27.0444 54.2217 26.8265L55.4324 25.9448L55.2912 27.4194L55.2256 27.9058C55.2054 28.0629 55.1903 28.1592 55.1802 28.2606L54.8573 31.1135L54.7614 31.2705C54.3881 31.7976 53.9139 32.2435 53.2984 32.6641C52.7233 33.0543 52.0574 33.3988 51.2603 33.713C50.4885 34.0171 49.6157 34.2654 48.6724 34.4528C47.8046 34.6201 46.8663 34.7163 45.8775 34.7366H45.3226V34.7417L45.3075 34.7366ZM110.85 83.7378L95.2461 75.0017C94.4692 74.571 93.5409 74.571 92.7691 75.0017L77.1655 83.7378C76.3633 84.1888 75.8588 85.0452 75.8588 85.9725V104.575C75.8588 105.467 76.3835 106.272 77.1957 106.637L93.6469 114H94.3683L94.5146 113.934C98.9893 111.927 104.917 109.227 111.062 106.125C111.551 105.877 111.859 105.391 111.874 104.848C112.065 98.1746 112.161 91.8252 112.156 85.9725C112.156 85.0452 111.652 84.1888 110.85 83.7378ZM94.005 80.1602L107.066 87.4724C107.066 92.9401 107.167 97.2169 107.359 103.08C103.045 105.791 99.0801 108.492 94.005 111.978L80.944 103.044L80.9238 87.4825L94.005 80.1602Z" fill="white"/>
</svg>
