<svg width="176" height="44" viewBox="0 0 176 44" fill="none" xmlns="http://www.w3.org/2000/svg">
<path d="M23.8813 18.5804C22.9069 21.182 17.8353 20.4568 15.5213 18.5804C16.0478 16.7887 16.2919 15.7222 16.0903 14.0599C13.8188 14.1023 10.7746 16.5343 10.1653 26.557C9.92117 32.6549 11.3414 39.8215 14.4259 40.0335C14.6297 36.3654 16.0499 27.2397 14.2646 25.448C16.4151 24.5087 19.0942 24.212 21.527 24.5957C23.6371 24.8947 24.2061 26.345 24.0023 30.736C23.5161 40.3749 16.7399 42.4633 12.5599 42.4633C5.54166 42.4633 -0.302644 38.2842 0.591091 26.0862C1.28103 16.4473 6.84087 12.0987 14.3474 12.0987C21.8539 12.0987 24.9385 15.8092 23.8834 18.5804H23.8813Z" fill="white"/>
<path d="M47.579 21.3515L46.3626 36.8763C46.8487 37.0905 47.7425 37.0905 48.2286 36.8763C51.9628 43.1884 38.0834 45.8748 39.546 33.9334H39.1405C38.6141 42.5481 35.6505 42.9743 32.2008 42.5481C27.3309 41.9501 25.1805 37.0035 26.1145 30.2229C26.6007 26.8113 28.265 20.4568 36.3001 19.7741C39.8305 19.4751 44.2949 20.2002 47.5811 21.3515H47.579ZM35.3257 28.8997C34.5955 35.1271 35.3257 36.7893 36.3001 36.9187C37.2745 37.0459 37.9645 36.6197 38.2468 34.0182L39.6267 21.3939C37.2321 21.3939 35.8925 24.4217 35.3257 28.8997Z" fill="white"/>
<path d="M83.5725 28.7726L82.6385 41.7805C80.488 42.2067 76.6731 42.6329 73.7117 41.7805L74.563 29.9239C74.8878 25.1892 75.3739 22.6746 73.8327 22.6746C72.697 22.6746 71.7629 25.2762 71.5612 28.7726L70.6272 41.7805C68.5977 42.2067 64.9463 42.6329 62.1059 41.7805L62.9572 29.9239C63.3223 24.8925 63.8085 22.6746 62.1059 22.6746C60.6857 22.6746 60.1592 25.3186 59.9958 28.092L59.0214 41.7828C56.9919 42.2089 53.3405 42.6351 50.5001 41.7828L52.0816 19.9905C54.2321 19.9905 59.1424 19.6067 58.7369 23.3596C58.4928 25.6622 58.4524 26.1308 58.3718 27.9225L58.7772 27.9649C58.981 24.9795 59.5478 19.6915 65.6745 19.6915C68.5956 19.6915 70.3406 20.8852 70.3406 23.3172C70.3406 24.3414 70.0158 26.644 69.9754 27.9225L70.3809 27.9649C70.7461 24.6805 71.557 19.6915 77.8874 19.6915C83.3645 19.6915 83.9334 23.4444 83.5683 28.7748L83.5725 28.7726Z" fill="white"/>
<path d="M106.865 27.7484C106.094 32.3113 99.56 33.6768 94.3674 31.8427C94.7729 33.891 96.1527 35.2118 98.628 35.5956C101.834 36.1936 104.958 34.2301 105.973 32.2689C107.272 38.6234 102.239 42.8448 95.6263 42.4611C88.7693 42.0773 85.239 37.5569 85.8058 30.2206C86.2919 23.7813 90.3509 19.7294 97.4923 19.7294C103.498 19.7294 107.718 22.1168 106.865 27.7462V27.7484ZM95.0977 29.4553C95.0573 30.0957 95.0573 30.3947 95.0977 30.7784C97.3691 30.948 98.1822 29.9261 98.3839 27.2375L98.749 22.1615C98.7894 21.3515 98.3436 21.2668 97.9784 21.3091C95.7473 21.4809 95.4628 23.9107 95.0977 29.4553Z" fill="white"/>
<path d="M160.389 7.0646L120.917 1.03457C111.478 -0.407335 102.715 6.46572 101.343 16.386C99.9711 26.3062 106.51 35.5171 115.949 36.959L155.421 42.989C164.86 44.4309 173.623 37.5578 174.995 27.6376C176.367 17.7173 169.828 8.5065 160.389 7.0646Z" fill="#88313A"/>
<path d="M157.92 43.5008C157.082 43.5008 156.235 43.4383 155.381 43.3067L115.908 37.2802C111.259 36.5707 107.151 34.0003 104.341 30.0421C101.53 26.0839 100.356 21.2154 101.031 16.3291C102.426 6.24174 111.367 -0.773206 120.965 0.692703L160.438 6.71922C170.036 8.18513 176.71 17.583 175.315 27.6703C174.046 36.8607 166.509 43.5008 157.92 43.5008ZM118.401 1.16795C114.773 1.16795 111.257 2.38843 108.298 4.70889C104.67 7.55592 102.311 11.7171 101.662 16.425C101.012 21.1329 102.144 25.8296 104.852 29.6427C107.561 33.4559 111.52 35.9348 116 36.6175L155.473 42.644C156.294 42.769 157.113 42.8315 157.92 42.8315C166.197 42.8315 173.46 36.4323 174.685 27.5744C176.028 17.853 169.596 8.79425 160.347 7.38189L120.874 1.35761C120.048 1.23043 119.222 1.17018 118.401 1.17018V1.16795Z" fill="white"/>
<path d="M170.585 26.9662C171.691 18.966 166.417 11.5378 158.805 10.375C151.194 9.21219 144.126 14.755 143.02 22.7552C141.913 30.7554 147.187 38.1836 154.799 39.3464C162.411 40.5092 169.478 34.9664 170.585 26.9662Z" fill="white"/>
<path d="M123.132 19.5376C122.207 24.7675 118.585 27.7328 114.399 27.0925C110.058 26.4298 107.909 22.3467 108.958 17.3733C109.988 12.5405 113.346 10.0103 117.619 10.6618C121.827 11.3044 124.02 14.5865 123.13 19.5376H123.132ZM114.197 18.0783C113.889 19.6469 113.652 21.3694 113.435 25.2339C113.405 25.6087 113.571 25.7292 113.923 25.7827C115.187 25.9746 116.849 24.8992 117.917 18.6451C118.161 17.2082 118.617 14.0688 118.405 12.4936C118.35 12.0808 118.288 12.0251 117.957 11.9737C116.511 11.7997 115.189 13.0246 114.195 18.0783H114.197Z" fill="white"/>
<path d="M136.863 30.1425C135.033 30.1247 133.174 29.8413 131.416 29.3103L129.414 17.1211L129.193 17.0877C129.212 18.4219 129.257 19.7361 129.142 21.0481C128.896 23.8148 128.317 27.03 128.005 28.7882C126.308 28.7904 124.625 28.5338 122.999 28.0251C124.328 22.8331 125.429 17.6299 126.359 12.3776C128.208 12.4222 130.002 12.6966 131.696 13.192L133.991 25.544L134.212 25.5775C134.11 24.1829 134.006 22.813 134.059 21.443C134.169 18.8459 134.825 15.9029 135.216 13.7297C136.931 13.7542 138.549 13.9997 140.109 14.4772C139.466 17.6589 137.341 26.6507 136.859 30.1425H136.863Z" fill="white"/>
<path d="M164.066 29.4955C158.642 28.6677 154.884 23.3752 155.672 17.6745C155.81 16.6771 156.08 15.7356 156.458 14.8609C151.781 15.0662 147.758 18.7365 147.06 23.7813C146.272 29.4821 150.029 34.7745 155.453 35.6023C159.928 36.2851 164.136 33.7147 165.915 29.5936C165.308 29.6204 164.69 29.5914 164.066 29.4955Z" fill="#88313A"/>
<path d="M158.665 19.0199C160.219 19.9146 160.712 20.6085 161.085 22.4292C161.937 20.796 162.597 20.2783 164.329 19.8856C162.775 18.9909 162.283 18.297 161.909 16.4763C161.058 18.1096 160.398 18.6272 158.665 19.0199Z" fill="#88313A"/>
</svg>
