<svg width="108" height="94" viewBox="0 0 108 94" fill="none" xmlns="http://www.w3.org/2000/svg">
<mask id="mask0_1099_619" style="mask-type:luminance" maskUnits="userSpaceOnUse" x="0" y="0" width="108" height="94">
<path d="M108 0H0V94H108V0Z" fill="white"/>
</mask>
<g mask="url(#mask0_1099_619)">
<path d="M86.1862 72.7575V79.8615H93.1586V93.5312H100.405V79.8615H107.376V72.7575H86.1848H86.1862ZM76.5561 72.7575V79.3318H70.3831V72.7575H62.1318V93.561H70.3831V86.1248H76.5561V93.561H84.8074V72.7575H76.5561ZM59.7087 81.2729V78.5281C59.7087 76.8356 59.0236 75.2112 57.8027 74.0142C56.5817 72.8171 54.9248 72.1441 53.1983 72.1455H42.5934C40.867 72.1455 39.2101 72.8171 37.9891 74.0142C36.7681 75.2112 36.0816 76.8356 36.0816 78.5281V87.6115C36.0816 91.1386 38.9957 93.9984 42.5934 93.9998H53.5865C55.2101 93.9998 56.7685 93.3679 57.9171 92.2419C59.0656 91.1159 59.7102 89.5895 59.7102 87.9963V82.6019H48.8981V86.0027H51.0866C50.7825 86.8447 49.9699 87.4056 49.0604 87.4042H46.7285C45.5452 87.4042 44.5849 86.4628 44.5849 85.3027V80.8398C44.5849 80.2818 44.8109 79.7479 45.2121 79.3531C45.6147 78.9584 46.1593 78.7383 46.7271 78.7383H49.0676C50.2509 78.7383 51.2112 79.6783 51.2112 80.8398V81.2715H59.7087V81.2729ZM33.6382 72.7575H25.3869V93.5625H33.6382V72.7575ZM14.4793 72.749V80.3102L9.33759 72.749H0V93.5767H8.72783V83.3616L14.614 93.5767H22.9363V72.749H14.4793Z" fill="white"/>
<path d="M60.7023 57.0302L59.1713 59.8999L57.6404 57.0302H53.0535L56.993 63.5989V67.8885H61.3497V63.5989L65.2892 57.0302H60.7023ZM48.8547 61.4817C48.7547 61.5797 48.6186 61.6351 48.4766 61.6351H45.8131V60.5886H48.4766C48.6924 60.5886 48.8865 60.7164 48.9691 60.9123C49.0516 61.1083 49.0053 61.3326 48.8532 61.4817H48.8547ZM48.8547 64.1768C48.7547 64.2748 48.6186 64.3301 48.4766 64.3301H45.8131V63.2836H48.4766C48.6186 63.2836 48.7547 63.339 48.8547 63.437C48.9546 63.535 49.0111 63.6684 49.0111 63.8076C49.0111 63.9468 48.9546 64.0788 48.8547 64.1782M51.7499 62.4601C52.364 62.1037 53.3229 61.3199 53.3229 59.9255C53.3243 59.6926 53.2953 59.4597 53.2345 59.234C52.8159 57.682 50.9678 57.0288 49.0545 57.0288H41.875V67.8885H49.0545C50.9678 67.8885 52.8159 67.2353 53.2345 65.6862C53.2953 65.4604 53.3243 65.229 53.3229 64.9947C53.3229 63.5975 52.364 62.8151 51.7499 62.4601Z" fill="white"/>
<path d="M97.6297 27.8022L94.1696 34.2914L90.7095 27.8022H80.3392L89.2452 42.6534V52.353H99.094V42.6534L108.001 27.8022H97.6312H97.6297ZM67.9282 40.1089L69.2389 36.7024L70.5497 40.1089H67.9282ZM74.7297 28.109H63.7468L54.4179 52.4254H64.6071L67.8051 44.0961H70.6699L73.8636 52.4254H84.0586L74.7297 28.109ZM37.3533 42.936V27.8022H27.6739V52.4254H54.231V42.936H37.3533ZM15.9986 37.871C15.7727 38.094 15.4656 38.2189 15.1455 38.2175H9.12033V35.8505H15.1455C15.6336 35.8505 16.0739 36.1387 16.2608 36.5817C16.4476 37.0233 16.3448 37.5331 16.0001 37.871H15.9986ZM16.4505 27.8022H0.214355V52.353H9.11889V42.6222H13.574C13.574 42.6222 26.0951 43.3293 26.0951 34.3482C26.0951 29.7121 21.3662 27.8022 16.449 27.8022" fill="white"/>
<path d="M106.198 8.44154V0.668792H81.1241V23.3978H106.198V15.625H89.0524V13.7791H99.3155V10.2889H89.0524V8.44296H106.198V8.44154ZM63.9509 14.6382V0.668792H55.016V23.3978H79.5295V14.6382H63.9509ZM43.0988 14.3556C43.0988 15.6236 42.0488 16.6516 40.7554 16.6502H38.2106C36.9172 16.6502 35.8701 15.6222 35.8701 14.3556V9.48804C35.8701 8.22003 36.9187 7.19341 38.2106 7.19341H40.7554C42.0488 7.19341 43.0974 8.22003 43.0988 9.48804V14.3556ZM45.267 0H33.7004C31.8161 0 30.0085 0.734109 28.6746 2.04045C27.3421 3.3468 26.5933 5.11888 26.5933 6.96622V16.8746C26.5933 18.7219 27.3421 20.494 28.6746 21.8018C30.0071 23.1081 31.8146 23.8422 33.7004 23.8422H45.267C49.1921 23.8422 52.3741 20.7226 52.3741 16.8746V6.96622C52.3741 3.11961 49.1921 0 45.267 0ZM15.0586 9.9552C14.85 10.1611 14.5661 10.2761 14.2706 10.2747H8.71183V8.09224H14.2706C14.7211 8.09224 15.1266 8.35918 15.299 8.76671C15.4713 9.17423 15.3757 9.64423 15.0586 9.95662V9.9552ZM20.0554 12.5082C20.0554 12.5082 24.3773 10.9946 24.3773 6.71205C24.3773 2.42952 20.0148 0.668792 15.4742 0.668792H0.488037V23.331H8.71183V14.3499H12.8179C12.8179 14.3499 14.9181 14.1852 14.9181 15.6946V23.331H24.596C24.596 23.331 24.89 13.8472 20.0554 12.5082Z" fill="white"/>
</g>
</svg>
